<svg width="58" height="58" viewBox="0 0 58 58" fill="none" xmlns="http://www.w3.org/2000/svg">
<rect width="58" height="58" rx="10" fill="white"/>
<path d="M38.5621 20.1563C38.1982 20.3256 37.9331 20.8086 38.0139 21.1554C38.0458 21.2923 38.1992 21.5194 38.3549 21.66L38.6379 21.9157L41.5886 21.96L44.5395 22.0042L38.7676 27.4444L32.9958 32.8847L28.1833 28.3513C23.6609 24.091 23.3512 23.8179 23.042 23.8179C22.8611 23.8179 22.6086 23.8829 22.4811 23.9624C22.1009 24.1992 10.2827 35.3425 10.1362 35.6022C9.76813 36.255 10.1851 37 10.9187 37C11.1787 37 11.3951 36.9244 11.6533 36.7435C11.8546 36.6024 14.4895 34.1542 17.5088 31.303L22.9983 26.119L27.7385 30.5809C30.9138 33.5697 32.5639 35.0623 32.7368 35.102C32.8787 35.1346 33.1109 35.1347 33.2529 35.1022C33.4274 35.0622 35.5407 33.1317 39.7755 29.1439L46.04 23.2446V26.0615V28.8784L46.3711 29.1905C46.6704 29.4726 46.7394 29.4979 47.0894 29.4537C47.3307 29.4232 47.5682 29.3183 47.7202 29.175L47.964 28.9453L47.9901 24.8782C48.0137 21.2242 48.0214 20.5423 47.6949 20.2857C47.6165 20.2242 47.5189 20.1871 47.3977 20.1393C46.9003 19.9434 38.9873 19.9587 38.5621 20.1563Z" fill="#0048FF"/>
<path d="M38.5621 20.1563C38.1982 20.3256 37.9331 20.8086 38.0139 21.1554C38.0458 21.2923 38.1992 21.5194 38.3549 21.66L38.6379 21.9157L41.5886 21.96L44.5395 22.0042L38.7676 27.4444L32.9958 32.8847L28.1833 28.3513C23.6609 24.091 23.3512 23.8179 23.042 23.8179C22.8611 23.8179 22.6086 23.8829 22.4811 23.9624C22.1009 24.1992 10.2827 35.3425 10.1362 35.6022C9.76813 36.255 10.1851 37 10.9187 37C11.1787 37 11.3951 36.9244 11.6533 36.7435C11.8546 36.6024 14.4895 34.1542 17.5088 31.303L22.9983 26.119L27.7385 30.5809C30.9138 33.5697 32.5639 35.0623 32.7368 35.102C32.8787 35.1346 33.1109 35.1347 33.2529 35.1022C33.4274 35.0622 35.5407 33.1317 39.7755 29.1439L46.04 23.2446V26.0615V28.8784L46.3711 29.1905C46.6704 29.4726 46.7394 29.4979 47.0894 29.4537C47.3307 29.4232 47.5682 29.3183 47.7202 29.175L47.964 28.9453L47.9901 24.8782C48.0137 21.2242 48.0214 20.5423 47.6949 20.2857C47.6165 20.2242 47.5189 20.1871 47.3977 20.1393C46.9003 19.9434 38.9873 19.9587 38.5621 20.1563Z" stroke="#0048FF"/>
</svg>
