<svg width="16" height="16" viewBox="0 0 16 16" fill="none" xmlns="http://www.w3.org/2000/svg">
<path fill-rule="evenodd" clip-rule="evenodd" d="M14.0403 0.246942C14.6645 0.412956 15.2599 0.67805 15.3635 0.836358C15.4671 0.994666 15.6782 1.75538 15.8324 2.5271C16.5394 6.0625 14.9783 10.0235 11.7387 12.9149C9.56932 14.8511 7.21867 15.4951 4.77166 14.8238C4.04838 14.6254 3.45646 14.35 3.45646 14.2117C3.45646 13.8046 4.83885 11.6068 5.99119 10.1818C6.57892 9.45522 8.09477 7.89834 9.36027 6.72215C11.475 4.7564 11.8836 4.12691 11.0448 4.12691C10.5432 4.12691 6.45899 8.04916 4.94711 9.98232C3.68441 11.5973 2.85684 13.0399 1.95857 15.1909C1.59414 16.0634 1.13917 16.2349 0.653642 15.6827C0.414727 15.411 0.449957 15.1186 0.844493 14.1082L1.32885 12.8675L0.733436 11.7587C-0.478404 9.5019 -0.17276 6.79569 1.53347 4.67736C2.74391 3.17421 5.30641 1.40464 7.29216 0.700288C9.29961 -0.0115466 12.3084 -0.21367 14.0403 0.246942Z" fill="#3CD184"/>
</svg>
