<svg width="211" height="41" viewBox="0 0 211 41" fill="none" xmlns="http://www.w3.org/2000/svg">
<path d="M51.1084 33H61.1523C66.2656 33 69.3701 30.4102 69.3701 26.1934V26.1602C69.3701 23.0059 67.0791 20.6484 63.709 20.3496V20.25C66.2656 19.9014 68.208 17.6104 68.208 15.0537V15.0205C68.208 11.3848 65.4023 9.04395 61.0527 9.04395H51.1084V33ZM59.9736 12.3809C62.5137 12.3809 63.9746 13.543 63.9746 15.6016V15.6348C63.9746 17.8428 62.2979 19.1045 59.3096 19.1045H55.3916V12.3809H59.9736ZM59.9902 22.209C63.2773 22.209 65.0039 23.4873 65.0039 25.9111V25.9443C65.0039 28.3848 63.3105 29.6631 60.1729 29.6631H55.3916V22.209H59.9902ZM72.0098 33H76.1436V22.6904C76.1436 20.2168 77.5547 18.7061 79.8955 18.7061C80.5928 18.7061 81.2236 18.8057 81.5723 18.9385V15.2031C81.2568 15.1201 80.7754 15.0371 80.2607 15.0371C78.1855 15.0371 76.6416 16.2822 76.1104 18.3408H76.0273V15.4023H72.0098V33ZM85.8887 12.8789C87.1836 12.8789 88.1797 11.8496 88.1797 10.6211C88.1797 9.35938 87.1836 8.34668 85.8887 8.34668C84.5938 8.34668 83.5811 9.35938 83.5811 10.6211C83.5811 11.8496 84.5938 12.8789 85.8887 12.8789ZM83.8135 33H87.9473V15.4023H83.8135V33ZM98.0078 33.3486C100.548 33.3486 102.49 32.0869 103.486 30.0117H103.586V33H107.72V9.04395H103.586V18.4238H103.486C102.49 16.3154 100.481 15.0371 97.9912 15.0371C93.5752 15.0371 90.7363 18.5068 90.7363 24.1846V24.2012C90.7363 29.8623 93.5586 33.3486 98.0078 33.3486ZM99.2529 29.8623C96.5967 29.8623 94.9531 27.7041 94.9531 24.2012V24.1846C94.9531 20.6816 96.6133 18.5234 99.2529 18.5234C101.793 18.5234 103.586 20.748 103.586 24.1846V24.2012C103.586 27.6543 101.81 29.8623 99.2529 29.8623ZM119.125 39.1592C124.222 39.1592 127.426 36.4863 127.426 32.502V15.4023H123.292V18.3906H123.192C122.196 16.3652 120.271 15.0371 117.78 15.0371C113.331 15.0371 110.459 18.457 110.459 24.0186V24.0352C110.459 29.5137 113.298 32.9004 117.714 32.9004C120.237 32.9004 122.229 31.7051 123.209 29.8291H123.292V32.3691C123.292 34.6104 121.814 36.0381 119.125 36.0381C116.967 36.0381 115.556 35.2744 115.107 34.2617L115.058 34.1289H110.99L111.023 34.2783C111.521 37.0342 114.46 39.1592 119.125 39.1592ZM119.009 29.7129C116.353 29.7129 114.676 27.5713 114.676 24.1016V24.085C114.676 20.665 116.353 18.5234 119.009 18.5234C121.565 18.5234 123.309 20.6982 123.309 24.1016V24.1182C123.309 27.5381 121.582 29.7129 119.009 29.7129ZM138.549 33.3486C143.147 33.3486 145.737 30.626 146.285 27.9199L146.335 27.7373H142.467L142.434 27.8535C142.035 29.0322 140.69 30.1279 138.632 30.1279C135.942 30.1279 134.249 28.3018 134.183 25.2139H146.501V23.8857C146.501 18.5732 143.38 15.0371 138.35 15.0371C133.319 15.0371 130.082 18.6895 130.082 24.2344V24.251C130.082 29.8457 133.27 33.3486 138.549 33.3486ZM138.399 18.2744C140.591 18.2744 142.185 19.6689 142.483 22.458H134.232C134.564 19.752 136.208 18.2744 138.399 18.2744ZM156.047 33.3486C160.363 33.3486 163.435 31.124 163.435 27.8037V27.7871C163.435 25.2305 162.023 23.8027 158.388 22.9893L155.449 22.3418C153.623 21.9268 152.942 21.2627 152.942 20.25V20.2334C152.942 18.9385 154.088 18.0918 155.914 18.0918C157.84 18.0918 158.969 19.1211 159.151 20.5322L159.168 20.665H163.02L163.003 20.4824C162.854 17.4443 160.297 15.0371 155.914 15.0371C151.664 15.0371 148.858 17.2119 148.858 20.4326V20.4492C148.858 23.0557 150.552 24.6992 153.922 25.4463L156.844 26.0938C158.67 26.5088 159.284 27.1064 159.284 28.1689V28.1855C159.284 29.4805 158.072 30.2939 156.063 30.2939C153.972 30.2939 152.826 29.3975 152.511 27.8867L152.478 27.7373H148.41L148.427 27.8867C148.792 31.1572 151.432 33.3486 156.047 33.3486ZM166.074 38.8105H170.208V30.0283H170.291C171.287 32.0869 173.296 33.3486 175.803 33.3486C180.219 33.3486 183.041 29.8623 183.041 24.2178V24.2012C183.041 18.5234 180.219 15.0371 175.753 15.0371C173.229 15.0371 171.304 16.332 170.291 18.4404H170.208V15.4023H166.074V38.8105ZM174.524 29.8623C171.968 29.8623 170.175 27.6543 170.175 24.2178V24.2012C170.175 20.748 171.968 18.5234 174.524 18.5234C177.164 18.5234 178.824 20.6816 178.824 24.2012V24.2178C178.824 27.6875 177.164 29.8623 174.524 29.8623ZM185.813 33H189.947V9.04395H185.813V33ZM195.658 12.8789C196.953 12.8789 197.949 11.8496 197.949 10.6211C197.949 9.35938 196.953 8.34668 195.658 8.34668C194.363 8.34668 193.351 9.35938 193.351 10.6211C193.351 11.8496 194.363 12.8789 195.658 12.8789ZM193.583 33H197.717V15.4023H193.583V33ZM207.777 33.3486C208.607 33.3486 209.338 33.2656 209.819 33.1992V30.0947C209.537 30.1113 209.222 30.1611 208.823 30.1611C207.312 30.1611 206.549 29.6133 206.549 27.8867V18.5898H209.819V15.4023H206.549V10.9365H202.349V15.4023H199.858V18.5898H202.349V28.2354C202.349 31.8545 204.092 33.3486 207.777 33.3486Z" fill="black"/>
<path fill-rule="evenodd" clip-rule="evenodd" d="M19.3229 17.9137C19.5435 18.1343 19.5435 18.492 19.3229 18.7126L6.20094 31.8346C6.09501 31.9405 5.95133 32 5.80151 32H0.566003C0.0628428 32 -0.189222 31.3917 0.166453 31.0358L15.9012 15.2911C16.1218 15.0704 16.4795 15.0703 16.7002 15.291L19.3229 17.9137Z" fill="black"/>
<path fill-rule="evenodd" clip-rule="evenodd" d="M13.2728 17.9244C13.0539 18.1439 13.0527 18.4988 13.2702 18.7196L26.179 31.8314C26.2852 31.9393 26.4302 32 26.5815 32H32.0152C32.5182 32 32.7703 31.3919 32.4148 31.036L16.6947 15.2951C16.474 15.0741 16.1157 15.0742 15.8951 15.2954L13.2728 17.9244Z" fill="black"/>
<path fill-rule="evenodd" clip-rule="evenodd" d="M0.0502014 8.56487C0.0502014 8.2529 0.303103 8 0.615073 8H32.0219C32.3339 8 32.5868 8.2529 32.5868 8.56487V12.2365C32.5868 12.5485 32.3339 12.8014 32.0219 12.8014H0.615073C0.303103 12.8014 0.0502014 12.5485 0.0502014 12.2365V8.56487Z" fill="black"/>
</svg>
