<svg width="33" height="24" viewBox="0 0 33 24" fill="none" xmlns="http://www.w3.org/2000/svg">
<path fill-rule="evenodd" clip-rule="evenodd" d="M19.3229 9.91369C19.5435 10.1343 19.5435 10.492 19.3229 10.7126L6.20094 23.8346C6.09501 23.9405 5.95133 24 5.80151 24H0.566003C0.0628428 24 -0.189222 23.3917 0.166453 23.0358L15.9012 7.29109C16.1218 7.07039 16.4795 7.07029 16.7002 7.29099L19.3229 9.91369Z" fill="#0048FF"/>
<path fill-rule="evenodd" clip-rule="evenodd" d="M13.2728 9.9244C13.0539 10.1439 13.0527 10.4988 13.2702 10.7196L26.179 23.8314C26.2852 23.9393 26.4302 24 26.5815 24H32.0152C32.5182 24 32.7703 23.3919 32.4148 23.036L16.6947 7.2951C16.474 7.0741 16.1157 7.0742 15.8951 7.2954L13.2728 9.9244Z" fill="#0048FF"/>
<path fill-rule="evenodd" clip-rule="evenodd" d="M0.0501709 0.56487C0.0501709 0.2529 0.303072 0 0.615042 0H32.0219C32.3339 0 32.5868 0.2529 32.5868 0.56487V4.2365C32.5868 4.5485 32.3339 4.8014 32.0219 4.8014H0.615042C0.303072 4.8014 0.0501709 4.5485 0.0501709 4.2365V0.56487Z" fill="#0048FF"/>
</svg>
