<svg width="354" height="374" viewBox="0 0 354 374" fill="none" xmlns="http://www.w3.org/2000/svg">
<path fill-rule="evenodd" clip-rule="evenodd" d="M310.642 5.77227C324.451 9.65285 337.625 15.8494 339.917 19.5499C342.209 23.2503 346.88 41.032 350.293 59.071C365.934 141.711 331.394 234.299 259.718 301.885C211.721 347.145 159.713 362.199 105.573 346.507C89.5704 341.869 76.4741 335.431 76.4741 332.199C76.4741 322.683 107.06 271.309 132.555 238C145.559 221.016 179.097 184.624 207.096 157.13C253.885 111.181 262.924 96.4666 244.366 96.4666C233.268 96.4666 142.905 188.149 109.455 233.337C81.5175 271.088 63.2076 304.808 43.3335 355.086C35.2703 375.482 25.2042 379.492 14.4618 366.584C9.17583 360.233 9.95531 353.398 18.6844 329.78L29.4009 300.779L16.2273 274.86C-10.5847 222.107 -3.82231 158.849 33.9281 109.333C60.7091 74.197 117.404 32.8334 161.339 16.3692C205.754 -0.269901 272.324 -4.99453 310.642 5.77227Z" fill="#3CD184"/>
</svg>
